<svg xmlns="http://www.w3.org/2000/svg" width="1500" height="500" viewBox="0 0 1500 500" role="img" aria-label="ZeroScout X banner">
  <defs>
    <radialGradient id="glow" cx="34%" cy="50%" r="52%">
      <stop offset="0%" stop-color="#7C3AED" stop-opacity="0.42"/>
      <stop offset="42%" stop-color="#7C3AED" stop-opacity="0.15"/>
      <stop offset="100%" stop-color="#09090B" stop-opacity="0"/>
    </radialGradient>
    <linearGradient id="markStroke" x1="0" y1="0" x2="1" y2="1">
      <stop offset="0%" stop-color="#A78BFA"/>
      <stop offset="45%" stop-color="#7C3AED"/>
      <stop offset="100%" stop-color="#E9D5FF"/>
    </linearGradient>
    <linearGradient id="line" x1="0" y1="0" x2="1" y2="0">
      <stop offset="0%" stop-color="#7C3AED" stop-opacity="0"/>
      <stop offset="42%" stop-color="#7C3AED" stop-opacity="0.55"/>
      <stop offset="100%" stop-color="#7C3AED" stop-opacity="0"/>
    </linearGradient>
    <filter id="softShadow" x="-20%" y="-20%" width="140%" height="140%">
      <feDropShadow dx="0" dy="18" stdDeviation="26" flood-color="#000000" flood-opacity="0.42"/>
    </filter>
  </defs>

  <rect width="1500" height="500" fill="#09090B"/>
  <rect width="1500" height="500" fill="url(#glow)"/>
  <path d="M0 368 C220 328 367 392 560 352 C753 312 910 222 1122 258 C1270 283 1394 286 1500 250" fill="none" stroke="url(#line)" stroke-width="1.5"/>
  <path d="M0 132 C180 170 338 92 520 124 C710 158 822 214 1028 178 C1216 146 1368 112 1500 148" fill="none" stroke="#27272A" stroke-width="1"/>

  <g opacity="0.5">
    <circle cx="1220" cy="90" r="2" fill="#A78BFA"/>
    <circle cx="1308" cy="146" r="2" fill="#71717A"/>
    <circle cx="1172" cy="352" r="2" fill="#71717A"/>
    <circle cx="1388" cy="314" r="2" fill="#A78BFA"/>
    <circle cx="1014" cy="108" r="1.5" fill="#71717A"/>
    <circle cx="1080" cy="410" r="1.5" fill="#71717A"/>
  </g>

  <g transform="translate(130 126)" filter="url(#softShadow)">
    <circle cx="124" cy="124" r="104" fill="#111113" stroke="#27272A" stroke-width="1.5"/>
    <circle cx="124" cy="124" r="82" fill="none" stroke="url(#markStroke)" stroke-width="9" stroke-linecap="round" stroke-dasharray="378 104"/>
    <path d="M79 84 H169 L82 164 H176" fill="none" stroke="#F8FAFC" stroke-width="16" stroke-linecap="round" stroke-linejoin="round"/>
    <path d="M178 89 C151 70 105 74 103 107 C101 133 174 122 171 157 C169 190 116 190 87 168" fill="none" stroke="#C4B5FD" stroke-width="14" stroke-linecap="round"/>
  </g>

  <g transform="translate(420 150)">
    <text x="0" y="0" fill="#FAFAFA" font-family="Inter, ui-sans-serif, system-ui, -apple-system, Segoe UI, Arial, sans-serif" font-size="82" font-weight="750" letter-spacing="-1">ZeroScout</text>
    <text x="2" y="70" fill="#D4D4D8" font-family="Inter, ui-sans-serif, system-ui, -apple-system, Segoe UI, Arial, sans-serif" font-size="34" font-weight="520">AI proof layer for builders</text>
    <g transform="translate(2 112)">
      <rect x="0" y="0" width="210" height="42" rx="21" fill="#18181B" stroke="#3F3F46"/>
      <rect x="230" y="0" width="142" height="42" rx="21" fill="#18181B" stroke="#3F3F46"/>
      <rect x="392" y="0" width="212" height="42" rx="21" fill="#18181B" stroke="#3F3F46"/>
      <text x="22" y="27" fill="#E4E4E7" font-family="Inter, ui-sans-serif, system-ui, -apple-system, Segoe UI, Arial, sans-serif" font-size="16" font-weight="560">Project Passports</text>
      <text x="252" y="27" fill="#E4E4E7" font-family="Inter, ui-sans-serif, system-ui, -apple-system, Segoe UI, Arial, sans-serif" font-size="16" font-weight="560">0G proof</text>
      <text x="414" y="27" fill="#E4E4E7" font-family="Inter, ui-sans-serif, system-ui, -apple-system, Segoe UI, Arial, sans-serif" font-size="16" font-weight="560">Video review APIs</text>
    </g>
  </g>
</svg>
